<svg width="82" height="82" viewBox="0 0 82 82" fill="none" xmlns="http://www.w3.org/2000/svg">
<circle cx="41" cy="41" r="41" fill="#54AF46"/>
<path d="M66 36C66 36 62.5 15 40.5 15C28.0454 15 20.8034 22.1601 17.5 29C14.8357 34.5168 15 40 15 40" stroke="white" stroke-width="1.8" stroke-linecap="round" stroke-linejoin="round"/>
<path d="M11 36L15 41.5L19.5 36.5" stroke="white" stroke-width="1.8" stroke-linecap="round" stroke-linejoin="round"/>
<path d="M15.5 46.5C15.5 46.5 19 67.5 41 67.5C53.4546 67.5 60.6966 60.3399 64 53.5C66.6643 47.9832 66.5 42.5 66.5 42.5" stroke="white" stroke-width="1.8" stroke-linecap="round" stroke-linejoin="round"/>
<path d="M70.5 46.5L66.5 41L62 46" stroke="white" stroke-width="1.8" stroke-linecap="round" stroke-linejoin="round"/>
<path d="M36 44.5L29 38L24 43L36 54.5L57.5 33L52.5 28L36 44.5Z" stroke="white" stroke-width="1.8" stroke-linecap="round" stroke-linejoin="round"/>
</svg>
