<svg width="82" height="82" viewBox="0 0 82 82" fill="none" xmlns="http://www.w3.org/2000/svg">
<circle cx="41" cy="41" r="41" fill="#F58231"/>
<path d="M34.2432 48.629C34.2432 48.629 31 48.0968 31 45.4355C31 42.7742 31 39.5806 31 35.3226C31 31.0645 38.5676 30 41.2703 30C43.973 30 51 31.0645 51 35.3226C51 39.5806 51 42.7742 51 45.4355C51 48.0968 47.7568 48.629 47.7568 48.629M34.7838 38.5161V63M47.2162 38.5161V63M41.2703 48.0968V63" stroke="white" stroke-width="1.8" stroke-linecap="square" stroke-linejoin="round"/>
<rect x="36.9" y="16.9" width="7.2" height="10.2" rx="3.6" stroke="white" stroke-width="1.8"/>
<path d="M27.5 31L20.5 24M20.5 24V29M20.5 24H25.5" stroke="white" stroke-width="1.8" stroke-linecap="round" stroke-linejoin="round"/>
<path d="M25.8985 41.0203L16 40.8779M16 40.8779L19.4843 44.464M16 40.8779L19.586 37.3936" stroke="white" stroke-width="1.8" stroke-linecap="round" stroke-linejoin="round"/>
<path d="M27.9998 50L21.0117 57.012M21.0117 57.012L26.0117 57.0034M21.0117 57.012L21.0032 52.012" stroke="white" stroke-width="1.8" stroke-linecap="round" stroke-linejoin="round"/>
<path d="M53.5117 31L60.5117 24M60.5117 24V29M60.5117 24H55.5117" stroke="white" stroke-width="1.8" stroke-linecap="round" stroke-linejoin="round"/>
<path d="M55.1132 41.0203L65.0117 40.8779M65.0117 40.8779L61.5274 44.464M65.0117 40.8779L61.4257 37.3936" stroke="white" stroke-width="1.8" stroke-linecap="round" stroke-linejoin="round"/>
<path d="M53.0119 50L60 57.012M60 57.012L55 57.0034M60 57.012L60.0085 52.012" stroke="white" stroke-width="1.8" stroke-linecap="round" stroke-linejoin="round"/>
</svg>
