<svg width="82" height="82" viewBox="0 0 82 82" fill="none" xmlns="http://www.w3.org/2000/svg">
<circle cx="41" cy="41" r="41" fill="#54AF46"/>
<path d="M24.5256 48.4082C24.5256 48.4082 21.5256 40.4082 29.5256 34.4082C33.8823 31.1406 41.0255 30.6706 48.5255 29.4082C53.2343 28.6156 54.5256 27.4082 54.5256 27.4082C54.5256 27.4082 56.0256 33.9082 51.0256 45.4082C49.5256 48.4082 45.0256 53.2898 41.0256 54.4082C34.5196 56.2272 27.0256 53.9082 27.0256 53.9082M27.0256 53.9082C27.0256 53.9082 28.5256 47.9082 34.0256 42.4082C40.0256 36.4082 45.5256 35.4082 45.5256 35.4082M27.0256 53.9082C27.0256 53.9082 25.5256 59.9082 29.5256 63.4082C33.5256 66.9082 39.5256 66.4082 39.5256 66.4082C39.5256 66.4082 47.5256 66.5278 54.5256 62.4082C60.1821 59.0791 65.9113 50.9334 66.5256 43.4082C67.309 33.8102 62.5256 27.4082 62.5256 27.4082C62.5256 27.4082 56.5256 18.4082 45.5256 16.4082C34.5256 14.4082 26.0256 20.4082 26.0256 20.4082C26.0256 20.4082 15.5256 27.4082 15.0256 39.4082C14.5256 51.4082 21.5256 57.9082 21.5256 57.9082" stroke="white" stroke-width="1.8" stroke-linecap="round" stroke-linejoin="round"/>
</svg>
