<svg width="200" height="200" viewBox="0 0 200 200" fill="none" xmlns="http://www.w3.org/2000/svg">
<path d="M100 200C155.228 200 200 155.228 200 100C200 44.7717 155.228 0 100 0C44.7717 0 0 44.7717 0 100C0 155.228 44.7717 200 100 200Z" fill="#F58232"/>
<path d="M89.3286 155.866L88.695 138.128C88.695 138.128 92.4962 134.327 93.1297 129.259C93.7632 124.19 89.9621 120.389 88.0615 119.122C86.161 117.855 77.9252 114.688 73.4905 110.253C69.0558 105.818 69.6894 102.228 66.5218 100.116C63.3541 98.0048 60.1865 100.75 60.1865 102.651" stroke="white" stroke-width="3" stroke-linecap="round" stroke-linejoin="round"/>
<path d="M68.4222 114.688C68.4222 114.688 61.01 111.52 60.1864 103.284C59.9963 101.384 59.5529 96.9489 61.4534 90.6137C63.354 84.2784 69.0557 78.5767 65.2546 76.6762C61.4534 74.7756 56.3853 83.6449 56.3853 83.6449C56.3853 83.6449 47.5159 100.117 50.6836 113.42C53.8512 126.724 68.4222 136.227 68.4222 136.227V146.997" stroke="white" stroke-width="3" stroke-linecap="round" stroke-linejoin="round"/>
<path d="M109.671 155.866L110.305 138.128C110.305 138.128 106.504 134.327 105.87 129.259C105.237 124.19 109.038 120.389 110.938 119.122C112.839 117.855 121.075 114.688 125.509 110.253C129.944 105.818 129.311 102.228 132.478 100.116C135.646 98.0048 138.813 100.75 138.813 102.651" stroke="white" stroke-width="3" stroke-linecap="round" stroke-linejoin="round"/>
<path d="M130.578 114.688C130.578 114.688 137.99 111.52 138.814 103.284C139.004 101.384 139.447 96.9489 137.547 90.6137C135.646 84.2784 129.944 78.5767 133.745 76.6762C137.547 74.7756 142.615 83.6449 142.615 83.6449C142.615 83.6449 151.484 100.117 148.316 113.42C145.149 126.724 130.578 136.227 130.578 136.227V146.997" stroke="white" stroke-width="3" stroke-linecap="round" stroke-linejoin="round"/>
<path d="M85.5274 65.2727C85.5274 65.2727 74.124 65.9062 74.124 70.9744C74.124 76.0426 74.124 80.4773 74.124 83.0113C74.124 85.5454 78.5587 86.179 78.5587 86.179M78.8106 74.142V101.185" stroke="white" stroke-width="3" stroke-linecap="square" stroke-linejoin="round"/>
<path d="M115.936 65.2727C115.936 65.2727 127.34 65.9062 127.34 70.9744C127.34 76.0426 127.34 80.4773 127.34 83.0113C127.34 85.5454 122.905 86.179 122.905 86.179M122.653 74.142V101.185" stroke="white" stroke-width="3" stroke-linecap="square" stroke-linejoin="round"/>
<rect x="80.6921" y="50.3011" width="8.40341" height="10.9375" rx="3.5" stroke="white" stroke-width="3"/>
<rect x="95.8967" y="46.5" width="8.40341" height="10.9375" rx="3.5" stroke="white" stroke-width="3"/>
<rect x="112.368" y="50.3011" width="8.40341" height="10.9375" rx="3.5" stroke="white" stroke-width="3"/>
<path d="M92.4962 83.6449C92.4962 83.6449 88.6951 83.0113 88.6951 79.8437C88.6951 76.6761 88.6951 72.875 88.6951 67.8068C88.6951 62.7386 97.5644 61.4716 100.732 61.4716C103.9 61.4716 112.135 62.7386 112.135 67.8068C112.135 72.875 112.135 76.6761 112.135 79.8437C112.135 83.0113 108.334 83.6449 108.334 83.6449M93.1297 71.6079V100.75M107.701 71.6079V100.75M100.732 83.0113V100.75" stroke="white" stroke-width="3" stroke-linecap="square" stroke-linejoin="round"/>
</svg>
