<svg width="87" height="89" viewBox="0 0 87 89" fill="none" xmlns="http://www.w3.org/2000/svg">
<path d="M43.4849 9.40234C51.7566 9.40234 59.501 12.4746 58.3938 13.9399C58.2434 14.1947 57.9628 14.2367 57.5674 14.1437L55.2208 19.2201C55.2208 19.2201 49.7244 16.641 43.4789 16.641C37.2341 16.641 31.7093 19.2201 31.7093 19.2201L29.364 14.1437C28.9684 14.2367 28.6889 14.1947 28.5368 13.9399C27.429 12.4746 35.1736 9.40234 43.4478 9.40234H43.4849Z" fill="#E8412C"/>
<path d="M43.5934 0.232422H46.5821L46.4901 3.02993H45.0124L45.0437 5.73229C45.0437 5.73229 47.0497 5.50018 49.6125 6.10606L50.177 3.2869L48.9111 3.04279L49.3751 0.283644L55.3702 1.44418L54.7466 4.17226L53.2656 3.88614L52.6884 6.80496C52.6884 6.80496 56.42 7.73746 57.1191 8.20339L58.3233 5.36816L57.2515 4.90909L58.2903 2.31132L63.9016 4.72006L62.7124 7.25374L61.3163 6.65343L58.543 12.5888C57.0477 11.1955 53.4358 10.1008 50.6308 9.54117C50.6308 9.54117 47.4535 8.86457 43.5992 8.86457C39.7459 8.86457 36.3001 9.54117 36.3001 9.54117C33.4959 10.1008 29.8838 11.1955 28.3887 12.5888L25.6156 6.65365L24.2195 7.25396L23.0303 4.72027L28.6401 2.31154L29.6804 4.9093L28.609 5.36838L29.8141 8.20361C30.5132 7.73746 34.242 6.80517 34.242 6.80517L33.6661 3.88635L32.1839 4.17247L31.5615 1.4444L37.5575 0.283856L38.0191 3.04301L36.7551 3.28712L37.3192 6.10628C39.882 5.50039 41.888 5.7325 41.888 5.7325L41.9193 3.03015H40.4429L40.3496 0.232634H43.3383L43.5934 0.232422Z" fill="#FCD71A"/>
<path d="M43.4321 20.781C35.5773 20.781 31.2386 17.7979 31.2386 17.7979C31.2386 17.7979 26.7538 20.6749 24.1442 22.062C24.1442 22.062 29.0991 28.0946 28.7118 38.0945C28.3931 46.3611 24.3281 51.8423 24.1907 52.0708C23.7338 52.5961 25.1039 54.9023 27.5705 56.3642C31.7275 58.5113 36.2496 58.648 40.3144 60.8864C41.5021 61.4798 43.4649 63.5349 43.4649 63.5349C43.4649 63.5349 45.4285 61.4798 46.616 60.8864C50.681 58.648 55.2032 58.5113 59.3601 56.3642C61.8252 54.9026 63.1966 52.5961 62.7397 52.0708C62.6025 51.8423 58.5378 46.3611 58.2186 38.0945C57.8314 28.0948 62.7852 22.062 62.7852 22.062C60.1769 20.6751 55.692 17.7979 55.692 17.7979C55.692 17.7979 51.2873 20.781 43.4321 20.781Z" fill="#FCD71A"/>
<path d="M59.2216 51.6044C56.704 47.8521 56.0024 43.0652 55.814 41.0566H31.119C30.9317 43.0655 30.2289 47.8521 27.7113 51.6044C27.3395 52.1215 27.9558 53.3699 30.5746 54.7712C33.1921 56.1717 38.9346 56.8164 41.9106 58.8818L43.4638 60.0006L45.131 58.8818C47.9553 56.8854 53.7396 56.1717 56.3588 54.7712C58.9775 53.3699 59.5868 52.2135 59.2216 51.6044Z" fill="#E8412C"/>
<path d="M55.7769 40.2178C55.7769 40.2195 55.5559 37.354 55.5559 37.354C55.189 28.5225 58.9658 22.92 58.9658 22.92L55.3125 20.6064C50.7447 22.3523 46.5895 22.9346 43.0793 22.9346C36.0608 22.9346 31.6201 20.6064 31.6201 20.6064L27.9668 22.92C27.9668 22.92 31.7435 28.5228 31.3766 37.354L31.1582 40.2178H55.7769Z" fill="#E8412C"/>
<path d="M24.497 22.1374C25.3708 23.3286 29.2898 29.1928 28.9458 38.1027C28.6713 45.2027 25.7055 50.2658 24.4436 52.1122C24.4153 52.1518 24.3978 52.1778 24.3909 52.1895L24.3667 52.2234C24.3438 52.2504 24.3249 52.3306 24.3483 52.4722C24.4749 53.2646 25.7083 54.9892 27.6893 56.1632C29.6786 57.1898 31.8064 57.764 33.8645 58.3189C36.0538 58.9089 38.3155 59.5191 40.4274 60.6817C41.437 61.1867 42.9587 62.6852 43.4649 63.2C43.972 62.6852 45.4949 61.1856 46.5119 60.6768C48.6161 59.5191 50.8778 58.9089 53.0649 58.3191C55.1241 57.7642 57.2529 57.19 59.2528 56.1572C61.2228 54.9886 62.4545 53.265 62.5824 52.4727C62.6058 52.3321 62.5874 52.2508 62.564 52.2238L62.5396 52.19C62.5329 52.1782 62.5153 52.1522 62.4875 52.1126C61.2249 50.2662 58.2592 45.2032 57.9848 38.1032C57.6396 29.1933 61.5599 23.3291 62.435 22.1379C60.0732 20.8575 56.4109 18.5332 55.6908 18.0748C54.8939 18.5607 50.5263 21.0136 43.4321 21.0136C36.3437 21.0136 32.0301 18.5658 31.2399 18.0748C30.5174 18.5352 26.8552 20.8573 24.497 22.1374ZM43.4649 63.8717L43.296 63.6955C43.2763 63.6751 41.3474 61.6631 40.2098 61.0932C38.1404 59.9543 35.905 59.3519 33.7436 58.7687C31.6611 58.207 29.5089 57.6264 27.4636 56.57C25.4602 55.3833 24.0517 53.5599 23.8862 52.546C23.8457 52.2847 23.8841 52.079 24.0024 51.9311C24.0141 51.9131 24.033 51.8856 24.0585 51.8503C25.2975 50.0361 28.2105 45.0632 28.4803 38.0845C28.8597 28.2871 24.0141 22.269 23.9655 22.209L23.7842 21.9887L24.0356 21.8552C26.6065 20.4889 31.0691 17.6312 31.1135 17.6027L31.2446 17.5176L31.3717 17.6061C31.4144 17.6359 35.7505 20.547 43.4321 20.547C51.1271 20.547 55.5174 17.6346 55.5618 17.6048L55.6876 17.5189L55.8174 17.6027C55.8631 17.631 60.3248 20.4889 62.8945 21.8552L63.1459 21.9887L62.9654 22.209C62.9174 22.2688 58.0721 28.2983 58.4517 38.0845C58.72 45.0632 61.6332 50.0361 62.8722 51.8503C62.8964 51.8856 62.9166 51.9131 62.9281 51.9311C63.0467 52.079 63.085 52.2847 63.0432 52.546C62.8801 53.5582 61.4716 55.3835 59.4784 56.5642C57.4216 57.6264 55.2694 58.207 53.1871 58.7687C51.0257 59.3517 48.7903 59.9543 46.729 61.0887C45.5817 61.6629 43.6533 63.6749 43.6334 63.6953L43.4649 63.8717Z" fill="#30302C"/>
<path d="M53.2472 13.5268C53.1484 13.7928 52.8539 13.9283 52.5863 13.8292C52.3222 13.7319 52.1861 13.4366 52.2828 13.1709C52.382 12.9049 52.6769 12.7694 52.9437 12.8672C53.2086 12.9643 53.3447 13.2609 53.2472 13.5268ZM53.1983 12.0043C52.8679 11.8817 51.1032 12.6453 50.6992 12.664L50.6983 12.6704C51.0157 12.9195 52.0104 14.5646 52.3503 14.6565C52.6861 14.7478 54.271 14.0783 54.8443 13.9949L54.8456 13.9904C54.4268 13.5903 53.5252 12.126 53.1983 12.0043ZM47.1777 12.164C47.1526 12.4467 46.9021 12.6539 46.6196 12.6276C46.3369 12.6012 46.1301 12.3513 46.1565 12.0697C46.1822 11.7879 46.4323 11.5793 46.7148 11.6055C46.9964 11.6316 47.2047 11.8817 47.1777 12.164ZM44.495 11.99V11.9953C44.8658 12.1535 46.2529 13.4868 46.6031 13.488C46.9533 13.4891 48.3097 12.4323 48.8427 12.2049V12.1991C48.3354 11.9212 47.0857 10.7383 46.7381 10.7064C46.3866 10.6734 44.8802 11.8671 44.495 11.99ZM34.3468 13.8269C34.0813 13.9246 33.7859 13.789 33.6871 13.5234C33.5896 13.2574 33.7257 12.9619 33.9919 12.8631C34.2574 12.7654 34.5515 12.9015 34.6503 13.1672C34.7482 13.4325 34.6124 13.7281 34.3468 13.8269ZM33.7373 12.0011C33.4081 12.1226 32.5077 13.5879 32.0875 13.9881L32.0887 13.9928C32.6627 14.0749 34.2469 14.7455 34.5853 14.6542C34.9253 14.5622 35.9186 12.916 36.2352 12.6663L36.2339 12.6618C35.8312 12.6432 34.0652 11.8796 33.7373 12.0011ZM40.5151 12.6252C40.2327 12.6513 39.9821 12.4443 39.9571 12.1616C39.93 11.8796 40.1396 11.6295 40.42 11.6033C40.7024 11.577 40.9526 11.7842 40.9796 12.0663C41.0046 12.3489 40.7976 12.5991 40.5151 12.6252ZM40.3977 10.7038C40.0496 10.736 38.8004 11.9173 38.292 12.1963V12.2011C38.8235 12.4297 40.1812 13.4865 40.5327 13.4855C40.8829 13.4844 42.2685 12.1509 42.6395 11.9923V11.9863C42.2543 11.8637 40.7479 10.6702 40.3977 10.7038ZM42.2314 36.1879C42.0126 36.3536 41.7415 36.6598 41.7415 36.9447V38.1134H42.6883V37.6328C42.6862 37.4462 42.6931 37.3043 42.8221 37.1459L42.2314 36.1879ZM43.033 37.3564C42.9547 37.4232 42.9219 37.5233 42.9219 37.6356V39.4604H44.0341V37.6356C44.0341 37.5349 44.0006 37.446 43.9352 37.3564C43.6339 37.0336 43.3339 37.0336 43.033 37.3564ZM41.7413 39.4475H42.6639V38.4226H41.7413V39.4475ZM43.1783 35.7316C42.9093 35.7863 42.6641 35.8759 42.4768 35.9987L43.0992 36.9333C43.3561 36.7775 43.6007 36.7775 43.8684 36.9333L44.4801 35.9873C44.0576 35.7316 43.6236 35.642 43.1783 35.7316ZM45.4899 38.1359H48.2448V36.922H45.4899V38.1359ZM43.0885 35.4648C43.5555 35.342 44.0008 35.3969 44.4239 35.6195C44.8592 35.8422 45.2574 36.1879 45.4899 36.6333H48.0982L46.5519 35.3315H40.3396L38.8587 36.6333H41.4772C41.6067 36.4284 41.7753 36.2653 41.8868 36.133C42.2196 35.7865 42.6328 35.5649 43.0885 35.4648ZM44.7252 36.1879L44.1346 37.1457C44.2636 37.3041 44.2704 37.446 44.2683 37.6326V38.1131H45.2152V36.9445C45.2152 36.6596 44.9438 36.3536 44.7252 36.1879ZM44.2683 39.4475H45.2139V38.4226H44.2683V39.4475ZM45.4899 39.4475H48.2448V38.4226H45.4899V39.4475ZM38.6896 38.1359H41.4783V36.922H38.6896V38.1359ZM41.3724 29.1625V29.4716H45.6189V29.1625C44.1333 28.9523 43.0154 28.927 41.3724 29.1625ZM42.1056 26.7913L42.4395 27.5534L42.1056 28.3316L41.7726 27.5534L42.1056 26.7913ZM43.4878 26.7109L43.9102 27.6895L43.4878 28.6818L43.0829 27.6895L43.4878 26.7109ZM44.9768 26.7958L45.2942 27.5596L44.9768 28.3239L44.6416 27.5596L44.9768 26.7958ZM41.4704 28.35L41.4798 28.909C42.0473 28.8065 43.4738 28.7577 43.5177 28.7577C43.563 28.7577 44.9222 28.7875 45.5771 28.909L45.5675 28.3612L46.1693 27.6042C46.6254 26.9364 46.5692 26.4572 46.0341 26.1466C45.6447 25.9128 45.0336 25.9569 44.1659 26.2919C43.9528 26.3571 43.7061 26.4572 43.4738 26.5467C43.2501 26.4467 43.0642 26.3466 42.8619 26.2694C42.0057 25.9569 41.3939 25.9128 41.004 26.1344C40.3919 26.4799 40.3585 26.9587 40.8818 27.5939L41.4704 28.35ZM43.4878 26.2977L44.2775 26.0418C44.2775 26.0418 44.2951 25.9702 44.2951 25.8761C44.2951 25.4852 44.0145 25.1601 43.6433 25.0896V24.6417H43.8995V24.3071H43.6433V24.0173H43.2981V24.3071H43.0435V24.6417H43.2981V25.1018C42.9528 25.1895 42.6965 25.5019 42.6965 25.8761C42.6965 25.958 42.7188 26.0377 42.7188 26.0377L43.4878 26.2977ZM38.6896 39.4475H41.4783V38.4226H38.6896V39.4475ZM40.6058 35.0454H46.3727L45.6717 33.7389H41.3178L40.6058 35.0454ZM45.0836 32.2911H43.612H41.5852V32.6261L41.3851 33.4491H43.612H45.0836H45.5609L45.392 32.6261V32.2911H45.0836ZM46.5626 29.6752H45.0919V30.6664H44.2349V29.6752H42.6883V30.6664H41.8077V29.6752H40.3619V32.002H46.5628L46.5626 29.6752ZM41.7029 48.2393C41.8563 48.2213 42.7706 48.0391 42.9663 48.1294C43.1607 48.2187 43.2027 48.7691 43.2014 48.779C43.2576 48.7477 43.9112 48.2723 44.1309 48.3405C44.3114 48.3951 45.1026 49.2875 45.1408 49.3306C45.1446 49.3225 45.4048 48.8396 45.5774 48.8979C45.746 48.9455 46.7514 49.7239 46.8871 49.8227C46.8485 49.657 46.8234 49.5329 46.9175 49.3998C47.0116 49.2661 47.2002 49.2899 47.3954 49.3911C47.5596 49.501 48.1957 49.9716 48.6972 50.0979C48.9255 50.1682 49.227 49.8251 49.302 49.6774C49.0661 49.6249 48.2855 49.3137 47.969 49.1259C47.7501 49.0136 46.7773 48.4534 46.7565 48.4489C46.7685 48.5113 46.787 48.6024 46.7983 48.6454C46.8335 48.7781 46.8146 48.8625 46.7208 48.9208C46.6228 48.9888 45.6202 48.1774 45.521 48.1146C45.5013 48.1384 45.3337 48.4896 45.2167 48.4826C45.1363 48.4761 44.3448 47.6201 44.2683 47.5961C44.2121 47.5783 43.6271 48.1169 43.4511 47.9727C43.3827 47.9011 43.3165 47.483 43.2571 47.4868C43.1118 47.5044 41.5747 48.1193 41.2185 48.2121C41.2809 48.3045 41.5784 48.2532 41.7029 48.2393ZM47.1067 49.5162C47.1149 49.5912 47.1944 50.067 47.0986 50.1264C46.9977 50.1969 46.9904 50.1915 46.1985 49.6011C45.9657 49.4271 45.6549 49.1943 45.5482 49.1292C45.5238 49.1544 45.2784 49.6127 45.1571 49.6069C45.0722 49.6013 45.0201 49.5424 44.8107 49.297C44.7803 49.2627 44.1686 48.5839 44.0638 48.5524C43.98 48.528 43.6266 48.7792 43.5923 48.8015C43.1225 49.1388 43.0272 49.04 42.9807 48.9922C42.9076 48.9172 42.9354 48.3623 42.8538 48.3488C42.7177 48.3147 41.1868 48.5316 41.1868 48.5316L40.7612 48.947C40.7612 48.947 40.7123 48.9958 40.7265 49.0308C40.8227 49.1785 42.705 49.1082 42.7704 49.1549C42.8482 49.1549 42.9693 49.4118 42.9496 49.6191C42.9427 49.7018 42.9078 49.8418 42.9451 49.8793C43.0345 50.0079 43.8932 49.2642 44.0947 49.3278C44.2597 49.3767 44.5246 49.6849 44.8993 50.1148C45.0411 50.2794 45.2297 50.4815 45.2696 50.4843C45.309 50.4864 45.6149 49.9376 45.7218 49.9781C45.8346 49.9984 47.2983 51.1588 47.3498 51.123C47.3716 51.1082 47.1824 50.5842 47.2461 50.4989C47.308 50.4127 47.4927 50.4427 47.6286 50.5117C47.7253 50.539 48.4383 51.0385 48.5281 50.9614C48.6674 50.8671 48.2746 50.1999 48.2746 50.1999C48.2576 50.1903 47.1325 49.5128 47.1067 49.5162ZM51.6379 50.8791C51.5927 51.0315 51.4452 51.2211 51.4452 51.2211C51.4452 51.2211 51.6473 51.3759 51.7266 51.5083C51.7931 51.6097 51.9525 51.8191 52.2504 51.7882C52.6889 51.6928 52.6409 51.3019 52.6409 51.3019C52.298 51.3186 51.6636 50.9052 51.6379 50.8791ZM52.5715 50.4562C52.5715 50.4562 52.5584 50.7599 52.2341 50.7483C52.0768 50.7483 51.7015 50.7029 51.7791 50.7494C51.8582 50.797 52.6351 51.1369 52.741 51.1245C52.8479 51.1129 53.16 51.0595 52.9808 50.6849L52.5715 50.4562ZM53.9069 46.4214L55.0633 45.9412L55.0925 47.08L53.1345 49.6388L52.8807 49.4796L53.6904 48.0404L52.5989 49.3103L52.2873 49.1127L53.9069 46.4214ZM53.5683 50.1943L53.283 50.566L51.3648 49.342L51.6115 48.9513L53.5683 50.1943ZM50.5365 54.3483C50.5678 54.2857 50.5759 54.2098 50.5725 54.1674C50.5725 53.8847 50.4131 53.6695 50.0933 53.5368C50.0933 53.5368 49.6184 53.3753 49.5243 53.3753C49.443 53.3753 49.2418 53.4584 49.101 53.5026C49.7163 53.638 50.3528 53.9537 50.5365 54.3483ZM51.196 51.1804C51.3698 51.1804 51.5174 50.4882 51.5174 50.4882C51.5174 50.4882 52.3177 50.8649 52.4212 50.2741C52.397 49.7046 51.1426 49.8628 51.1426 49.8628C50.825 49.6853 50.3329 49.7901 50.2774 49.8465C50.2099 49.9033 50.0226 50.0878 49.826 50.3797C49.6921 50.5683 49.3813 50.6369 49.1893 50.582C49.1893 50.582 48.7309 50.4419 48.7101 50.4513C48.7416 50.5274 48.985 51.148 48.9778 51.2303C48.985 51.2814 48.9454 51.3686 48.8359 51.3722C48.7264 51.3757 48.6068 51.3469 48.0701 51.0469C47.8599 50.929 47.557 50.7636 47.5212 50.7798C47.4852 50.7981 47.5733 50.9764 47.6151 51.0741C47.7178 51.3114 47.7698 51.4389 47.7353 51.5152C47.7225 51.5415 47.7017 51.5595 47.6747 51.5677C47.6666 51.57 47.6584 51.5711 47.6481 51.5711C47.5632 51.5711 47.3946 51.4642 46.7838 51.039C46.4021 50.7719 45.8611 50.3684 45.7214 50.348C45.659 50.3881 45.5041 50.6298 45.5041 50.6298C45.5041 50.6298 45.3097 50.9301 45.2074 50.8754C45.1387 50.8444 45.0141 50.7027 44.7803 50.4344C44.5349 50.1532 44.1661 49.7293 44.0274 49.6875C43.8913 49.6472 43.6832 49.7963 43.4792 49.941C43.2156 50.1307 42.9219 50.3441 42.7293 50.1737C42.6395 50.0771 42.6534 49.9997 42.671 49.8135C42.6802 49.7157 42.7128 49.5944 42.6663 49.5019C42.5653 49.3587 42.2756 49.4384 41.9909 49.4466C41.6043 49.459 41.1017 49.4245 40.7494 49.3302C40.8887 49.7052 40.9759 50.0353 40.8351 50.1497C40.1131 51.0092 39.0005 51.1375 37.5138 50.5407C36.696 50.3306 36.1295 49.5291 35.9456 49.2359C35.8644 49.1165 35.6211 48.489 35.6443 48.0831C35.6537 47.8387 35.7013 47.6218 35.7862 47.4431C35.8713 47.2646 36.014 47.1407 36.2322 47.1407C36.3728 47.1319 36.6021 47.2421 36.7453 47.4135C37.214 48.0027 36.5742 48.8938 36.1342 49.1242C36.1863 49.2027 36.7763 50.0529 37.4733 50.3223C37.4767 50.1939 37.5037 50.0972 37.5442 50.0327C38.2594 48.9221 38.3784 48.0876 38.1885 47.3156C38.0918 46.8475 37.3732 45.9622 36.3633 45.9459C35.3522 45.93 34.7343 46.2496 34.1741 47.1023C33.4595 48.4093 33.2709 49.6609 33.619 50.8366C33.7294 51.1922 33.9945 51.8699 34.5485 52.5619C34.8331 52.8918 35.2847 53.428 35.4128 53.467C35.3582 53.2756 35.2988 52.9243 35.3419 52.6847C35.5056 53.1314 35.5781 53.5724 36.2735 54.0251C36.2735 54.0251 36.2538 53.7522 36.2444 53.3853C36.3526 53.7475 36.8749 54.4096 37.5524 54.74C37.5524 54.74 37.3582 54.2606 37.3171 53.9741C37.4184 54.1455 38.1735 54.8993 38.8702 55.1721C38.8702 55.1721 38.6377 54.64 38.556 54.323C38.6971 54.629 39.2937 55.2199 39.9523 55.3414C39.9523 55.3414 39.8848 54.8256 39.8036 54.6423C40.1559 54.9769 40.7704 55.4452 41.438 55.3142C41.438 55.3142 41.1264 54.8971 41.0331 54.6732C41.2434 54.9076 42.1823 55.3416 42.7458 55.078C42.7458 55.078 42.3546 54.9006 42.1557 54.5754C42.3444 54.8106 43.24 54.9447 43.6213 54.8151C43.6213 54.8151 43.3109 54.5673 43.0715 54.3575C43.6558 54.5757 44.0823 54.5197 44.0823 54.5197L44.7732 54.4494C44.7732 54.4494 45.276 54.4972 45.653 54.5722C46.0195 54.6567 49.257 55.4942 49.3117 55.5077C50.5532 55.7896 49.6955 55.0311 50.0189 55.1273C50.0444 55.1361 50.3181 55.2261 50.4285 55.1372C50.5041 55.1087 50.5487 55.0133 50.5487 54.8999C50.5487 54.8571 50.5069 54.6807 50.4439 54.5782C50.388 54.4734 50.0318 53.9766 48.8292 53.6095C48.3277 53.7754 47.7111 53.5572 47.4679 53.4153C47.2238 53.255 47.0455 53.057 46.9606 52.8221C47.8249 52.8512 48.5217 52.7186 49.0489 52.4365C49.5759 52.1545 50.0088 52.0135 50.338 52.0135C50.6567 52.0135 50.8543 52.06 50.9396 52.1543C50.9964 52.2387 51.0815 52.3054 51.185 52.3705C51.4506 52.5306 51.748 52.5066 51.9096 52.3806C52.0286 52.2636 52.1171 52.0043 52.1171 52.0043C51.5678 51.9873 51.2478 51.3667 51.2478 51.3667C51.2478 51.3667 50.7071 51.5308 50.6537 51.3283C50.5611 51.003 51.0241 51.1804 51.196 51.1804ZM49.3209 43.7731H48.9741L48.972 43.7789C48.8871 43.948 48.7531 44.0301 48.5648 44.0301C48.3819 44.0301 48.3005 44.1507 48.2971 44.1542L48.2924 44.164L48.2992 44.1698C48.3018 44.1722 48.5635 44.4118 48.8824 44.4118H48.8884L49.3209 43.7731ZM45.4445 44.5245C45.4492 44.403 45.6993 44.1925 45.8716 44.1152C45.9494 44.0824 46.2448 44.0982 46.4833 44.2279C46.7077 44.3492 46.8429 44.3528 46.9323 44.3301C47.0484 44.296 47.2105 44.2527 47.4034 44.2075L47.4012 44.185C47.0395 44.185 46.7379 44.113 46.5049 43.9709C46.2553 43.8254 46.0281 43.7551 45.8129 43.7551C45.4106 43.7662 45.2998 44.0674 45.2113 44.3093C45.195 44.3507 45.18 44.3914 45.1637 44.4358C45.1963 44.8794 45.5951 45.1623 46.2027 45.1715C46.2081 45.1715 46.8916 45.109 47.1822 44.8826L47.2077 44.8623L47.1753 44.861C47.1147 44.8586 47.0219 44.8633 46.9124 44.8704C46.7598 44.8796 46.5772 44.8918 46.4282 44.8826C46.23 44.8678 45.5628 44.8702 45.4445 44.5245ZM51.2472 44.7212C51.1917 44.7785 51.1634 44.825 51.1998 44.8726C51.295 44.9587 51.3541 45.1338 51.3031 45.2577C51.2551 45.4054 51.2017 45.4979 51.032 45.634C50.9375 45.834 50.7738 46.0522 50.706 46.0603C50.6407 46.0603 50.5839 46.0138 50.5292 45.9103C50.4628 45.8068 50.3074 45.7399 50.1196 45.7399C49.7465 45.7568 49.5256 46.0952 49.5256 46.0952C49.5403 46.364 49.8033 46.4547 50.0603 46.4583H50.4364C50.5954 46.4489 50.682 46.4868 50.6726 46.5811C50.6726 46.6656 50.6516 46.7956 50.5294 46.8899C50.3983 46.9836 50.3631 47.0458 50.3631 47.103C50.3528 47.1587 50.3443 47.2436 50.3443 47.3379C50.3353 47.4506 50.2562 47.5903 50.0969 47.5723C49.9469 47.5531 49.8432 47.5162 49.7605 47.4223C49.6792 47.328 49.5399 47.2243 49.314 47.2243C49.0883 47.2039 48.9263 47.2742 48.754 47.2612C48.5915 47.2815 48.5708 47.471 48.523 47.5723C48.3541 48.318 48.9336 49.1626 48.9799 49.2545C48.8614 49.3184 47.6329 48.6502 46.9325 48.2545C46.8324 48.1917 46.614 48.1045 46.4977 48.2644C46.4593 48.3177 46.4927 48.4667 46.5107 48.5715C46.4115 48.4999 45.5956 47.8462 45.5369 47.8304C45.3423 47.7689 45.24 48.1021 45.1807 48.2166C45.1573 48.1894 44.4968 47.4005 44.3487 47.355C44.156 47.2957 43.6761 47.7459 43.6401 47.7674C43.6253 47.5732 43.5064 47.2822 43.3739 47.2584C43.1948 47.2526 41.4834 47.8529 41.2588 47.9414C41.5113 47.4386 43.1341 46.1685 43.1341 46.1685C43.1341 46.1685 42.129 46.5796 41.5113 46.906C41.8336 46.0592 43.7662 44.562 43.7662 44.562C43.7662 44.562 43.0471 44.8749 42.4712 45.2123C42.7818 44.313 44.6292 43.1846 44.6292 43.1846C44.6292 43.1846 43.4706 43.6287 43.1667 43.73C43.5707 42.9889 44.713 42.4685 44.776 42.4469C44.8388 42.4259 46.0079 41.8489 46.2338 41.8588C46.3271 41.8575 47.2038 42.2433 47.3155 42.3294C47.4263 42.415 47.7518 42.7615 48.0056 42.8192C48.407 42.8475 48.5103 42.925 48.7084 43.0093C48.9051 43.0937 49.1597 43.2345 49.4505 43.4416C49.7249 43.6492 50.0251 43.7244 50.3359 43.6685C50.4859 43.6394 50.6929 43.6685 50.9469 43.7527C51.1925 43.8278 51.3421 43.9508 51.418 44.1104C51.4831 44.2605 51.4832 44.3826 51.427 44.4868C51.3507 44.5802 51.2939 44.6653 51.2472 44.7212ZM33.3708 50.8756C33.4709 51.2083 33.6837 51.8294 34.1854 52.5032C33.7013 52.6986 33.4872 53.2902 33.2707 54.3086C32.6413 54.4222 32.1515 54.0924 31.8035 53.2932C31.1348 53.5469 30.5718 53.4524 30.1191 53.0103C30.1948 52.5032 30.5424 52.0598 31.1254 51.6836C30.9276 50.9588 31.0497 50.4228 31.521 50.0561C31.8873 50.6823 32.4329 50.9721 33.3708 50.8756Z" fill="#FCD71A"/>
<path d="M43.486 8.93652H43.4487C36.3043 8.93652 29.031 11.2512 28.0873 13.1464C27.9047 13.5159 27.9266 13.8886 28.151 14.1998C28.2841 14.4128 28.5423 14.6548 29.0241 14.6548C29.046 14.6548 29.0655 14.6548 29.0878 14.6535L30.5049 17.7213L30.6977 18.1394L31.1178 17.951C31.1804 17.9238 37.4269 15.1717 43.4965 15.1717C49.5656 15.1717 55.7515 17.9227 55.8117 17.9499L56.2328 18.1394L56.4259 17.7213L57.8454 14.6535C57.8664 14.6548 57.8884 14.6548 57.9082 14.6548C58.3908 14.6548 58.6491 14.4128 58.783 14.1998C59.0053 13.8886 59.0284 13.5159 58.8445 13.1464C57.9017 11.2512 50.6303 8.93652 43.486 8.93652ZM43.486 9.40181C51.7576 9.40181 59.5021 12.4741 58.3949 13.9394C58.2922 14.1134 58.1293 14.1884 57.9082 14.1884C57.8068 14.1884 57.6941 14.1721 57.5683 14.1432L56.0035 17.5258C56.0035 17.5258 49.7424 14.7056 43.4965 14.7056C37.2499 14.7056 30.9281 17.5258 30.9281 17.5258L29.3647 14.1432C29.2402 14.1723 29.1248 14.1884 29.0239 14.1884C28.8051 14.1884 28.6422 14.1134 28.5372 13.9394C27.4294 12.4741 35.174 9.40181 43.4483 9.40181H43.486Z" fill="#30302C"/>
<path d="M25.7304 6.35114L28.4703 12.2124C30.1026 10.899 33.5113 9.86105 36.2542 9.31433C36.2906 9.30682 39.7669 8.63258 43.5991 8.63258C47.4337 8.63258 50.647 9.3079 50.6794 9.31433C53.4192 9.86105 56.8301 10.899 58.4624 12.2124L61.1997 6.35114L62.5968 6.95145L63.5883 4.84041L58.4178 2.62006L57.5526 4.78468L58.6274 5.24718L57.2234 8.55413L56.9881 8.39918C56.4426 8.03462 53.6599 7.28879 52.6327 7.03289L52.4183 6.97931L53.0817 3.61364L54.5697 3.90233L55.0896 1.62926L49.5662 0.559374L49.1796 2.85881L50.4522 3.10442L49.7938 6.38994L49.56 6.33421C48.1232 5.99452 46.8645 5.92401 46.0616 5.92401C45.4478 5.92401 45.0743 5.96601 45.0706 5.96601L44.8147 5.9958L44.7753 2.79816H46.2642L46.342 0.467002H40.5901L40.667 2.79816H42.1546L42.1177 5.9958L41.8593 5.96601C41.8556 5.96601 41.4846 5.92401 40.8682 5.92401C40.0667 5.92401 38.8089 5.99452 37.3723 6.33421L37.1369 6.38994L36.4796 3.10442L37.7527 2.85881L37.3661 0.559374L31.8426 1.62926L32.3613 3.90233L33.8493 3.61364L34.5126 6.97931L34.2983 7.03289C33.271 7.28879 30.4883 8.03462 29.9414 8.39918L29.7088 8.55413L28.3035 5.24718L29.3796 4.78468L28.5132 2.62006L23.3427 4.84041L24.3341 6.95145L25.7304 6.35114ZM58.618 12.9781L58.3833 12.7602C56.9396 11.4151 53.4085 10.3338 50.5846 9.77018C50.5501 9.76311 47.3823 9.09936 43.5989 9.09936C39.8131 9.09936 36.3797 9.76418 36.345 9.77126C33.5227 10.3338 29.9909 11.4151 28.5466 12.7602L28.3119 12.9781L25.5 6.95767L24.1037 7.55798L22.7158 4.6023L28.7686 2.00282L29.9798 5.03351L28.9139 5.49237L29.9272 7.87839C30.8477 7.44803 33.1978 6.83143 33.9689 6.63469L33.4817 4.16015L32.0076 4.44542L31.2792 1.2617L37.7467 0.00985982L38.2863 3.22851L37.0291 3.47283L37.5002 5.82585C38.8809 5.52216 40.0862 5.45636 40.8682 5.45636C41.209 5.45636 41.478 5.46986 41.6569 5.48036L41.6835 3.26344H40.2154L40.1072 0H46.8223L46.714 3.26344H45.2472L45.2736 5.48036C45.454 5.46986 45.7204 5.45636 46.0612 5.45636C46.8452 5.45636 48.0494 5.52194 49.4305 5.82585L49.9003 3.47283L48.6444 3.22851L49.1841 0.00985982L55.6516 1.2617L54.9242 4.44542L53.4488 4.16015L52.9602 6.63469C53.7341 6.83143 56.0841 7.44782 57.0041 7.87839L58.0166 5.49237L56.9495 5.03351L58.1627 2.00282L64.2147 4.6023L62.8281 7.55798L61.4318 6.95767L58.618 12.9781Z" fill="#30302C"/>
<path d="M69.486 79.9634H67.5946V88.4219H69.486V79.9634ZM54.6112 84.9013L55.8478 81.6503L57.1624 84.9013H54.6112ZM54.9751 79.9634L51.336 88.4219H53.2548L54.0329 86.4169H57.7441L58.5424 88.4219H60.5573L56.8946 79.9634H54.9751ZM7.06462 79.9634H4.05386L3.78274 79.9897H3.54335L3.32453 80.0135L3.0802 80.036L2.64514 80.1361L2.25657 80.2328L2.06262 80.3067L1.89244 80.4034L1.79579 80.4282L1.72142 80.476L1.62861 80.5259L1.33522 80.7225L1.26214 80.7951L1.18862 80.8451L1.11661 80.9177L1.04309 80.9666L0.991869 81.0405L0.922225 81.1108L0.872282 81.1865L0.821057 81.2341L0.753545 81.3307L0.606096 81.551L0.557016 81.6501L0.460792 81.8217L0.388572 81.9934L0.31762 82.1876L0.243045 82.4081L0.196529 82.6046L0.145317 82.8222L0.0998736 83.0678L0.072011 83.2881L0.0486483 83.5575L0.0244354 83.7995L0 84.0699V84.6308L0.0244354 84.9023L0.0486483 85.0241V85.1694L0.0998736 85.4137V85.5376L0.145317 85.6591L0.170812 85.7819L0.196529 85.9034L0.218819 86.0022L0.268763 86.1238L0.290621 86.2198L0.340551 86.3199L0.388572 86.4412L0.436579 86.5378L0.460792 86.6368L0.535158 86.7335L0.584028 86.8061L0.632036 86.9052L0.679611 87.004L0.753977 87.0779L0.821488 87.1744L0.872714 87.2472L1.23684 87.6141L1.33564 87.6654L1.57911 87.8567L1.72184 87.933L1.8453 88.0308L1.99211 88.0798L2.13484 88.1512L2.257 88.2003L2.40166 88.2502L2.57142 88.274L2.718 88.3252L3.30073 88.3955H3.52085L3.76024 88.4219H7.06548V86.9555H3.95442L3.81017 86.9317H3.66615L3.4229 86.8803L3.32496 86.8554L3.20193 86.8317L3.104 86.8066L3.00776 86.7601L2.91003 86.7339L2.718 86.6373L2.64578 86.5623L2.57142 86.5132L2.49897 86.4416L2.35366 86.2202L2.28057 86.1242L2.23064 86.0496L2.20963 85.9274L2.16292 85.8297L2.13463 85.7307L2.08705 85.6115L2.06282 85.4887L2.04053 85.3411L2.01397 85.2185V85.0717L1.99168 84.9023V83.852L2.01397 83.6779V83.5099L2.04053 83.3372L2.06282 83.1906L2.11041 83.044L2.13463 82.8978L2.18499 82.7746L2.20942 82.6524L2.25679 82.5309L2.30565 82.4083L2.40145 82.2126L2.47668 82.1138L2.54676 82.041L2.5967 81.9445L2.66764 81.8695L2.76644 81.8219L2.84103 81.748L3.32496 81.5037L3.68908 81.431H3.9542L4.1008 81.4059H7.06526V79.9634H7.06462ZM14.0568 73.7976L14.0834 73.651V73.0158L14.0568 72.8709V72.7476L14.0334 72.6051L14.0077 72.4802L13.9589 72.3595L13.9346 72.2382L13.8879 72.1154L13.7447 71.8211L13.6693 71.7256L13.5958 71.6518L13.5506 71.5809L13.4526 71.505L13.3802 71.433L13.2829 71.385L13.1862 71.3113L12.9942 71.2157L12.7501 71.1156L12.6292 71.0918L12.4833 71.068L12.3392 71.0181H12.1924L12.0484 70.9954L11.8795 70.9692H11.7098L11.5409 70.9452H8.70931L8.46605 70.8974L8.37218 70.8713L8.27553 70.8222L8.24981 70.7971L8.15336 70.7485L8.10536 70.7005L8.05778 70.678L8.03355 70.628L8.00912 70.604L7.98577 70.5541L7.96047 70.5307L7.93733 70.4829L7.90947 70.4341L7.88932 70.3591L7.86167 70.2637L7.84067 70.1413V69.8983L7.86167 69.8245V69.703L7.88932 69.6539L7.90947 69.6051L7.93733 69.5299V69.4823L7.96047 69.4345L8.03399 69.3618L8.0582 69.3119L8.12785 69.238L8.17908 69.2154L8.22709 69.1655L8.46648 69.0427L8.61329 68.9962L8.73416 68.9688L8.90262 68.9473H13.6693V67.4342H8.58886L8.41654 67.46L8.22709 67.4844L8.0582 67.5101L7.76501 67.557L7.59742 67.5821L7.47911 67.6321L7.33359 67.6809L7.08798 67.7763L6.96924 67.8502L6.86765 67.9229L6.77379 67.9728L6.67734 68.0455L6.50846 68.2159L6.292 68.5078L6.24077 68.6293L6.1932 68.7264L6.09803 68.9683L6.07318 69.1184L6.02367 69.2377L5.97587 69.5296V69.849L5.95273 70.0196L5.97587 70.1642V70.4576L6.0001 70.604L6.05003 70.8486L6.14519 71.0916L6.17219 71.2155L6.21763 71.3111L6.292 71.4326L6.34001 71.5046L6.48531 71.7003L6.55732 71.7751L6.65162 71.8456L6.72471 71.9217L6.82266 71.9932L6.91931 72.041L7.04233 72.0897L7.16449 72.1636L7.28215 72.2136L7.40517 72.2376L7.52411 72.2851L7.67199 72.3115L7.81602 72.3589L7.96026 72.3818H8.10556L8.44333 72.4328H11.1073L11.2505 72.4566H11.3971L11.5156 72.4793L11.6358 72.5282L11.7576 72.5545L11.8081 72.577L11.8311 72.6045L11.9262 72.6536L11.952 72.6739L11.9738 72.7239L12.0229 72.747L12.0486 72.7738L12.0737 72.8227L12.0971 72.8702L12.1215 72.8949L12.1457 72.9448V72.9926L12.168 73.0426V73.1141L12.1922 73.1617V73.2845L12.2177 73.406L12.1922 73.5286V73.6504L12.168 73.699V73.7468L12.1457 73.797L12.1215 73.8469L12.0971 73.8945L12.0737 73.9172L12.0486 73.9661L12.0229 73.9911L12.0006 74.04L11.9018 74.1371L11.7098 74.2348L11.5863 74.2603L11.4678 74.3094H11.3236L11.1778 74.3328L10.9852 74.3595H6.29178V75.8435H11.4678L11.6352 75.8208H11.8077L12.1457 75.7719L12.2904 75.7468L12.581 75.648L12.7019 75.6242L12.8217 75.552L13.0662 75.4543L13.2582 75.3056L13.38 75.235L13.4524 75.1613L13.5504 75.0874L13.6922 74.8943L13.7443 74.7976L13.8152 74.6986L13.9085 74.4532L13.9584 74.3328L14.0073 74.0891L14.0568 73.7976ZM13.8313 84.5582L13.8056 84.7298V84.9015L13.7786 85.0481L13.7567 85.2187L13.7312 85.3653L13.6832 85.4892L13.6588 85.6347L13.4623 86.1244L13.3202 86.3205L13.2704 86.4172L13.198 86.5136L13.102 86.5886L13.0251 86.6613L12.9312 86.7341L12.8588 86.7841L12.7623 86.8557L12.6421 86.9067L12.5446 86.9557L12.4224 87.0046L12.3257 87.0271L12.2059 87.0785H12.058L11.9382 87.1011L11.7917 87.1261H11.2353L11.0878 87.1011L10.9669 87.0785H10.8201L10.6993 87.0271L10.6018 87.0046L10.3619 86.9069L10.2642 86.8559L10.1654 86.7843L10.0921 86.7344L9.9965 86.6615L9.82548 86.4911L9.77791 86.4174L9.63366 86.2208L9.58116 86.098L9.50807 86.0031L9.46006 85.8805L9.43777 85.7577L9.34391 85.4632L9.29033 85.1713L9.26696 85.0247L9.24275 84.8531L9.22153 84.6816V83.6059L9.24275 83.4353L9.26696 83.2887L9.31497 82.9945L9.34412 82.8483L9.39278 82.7268L9.48685 82.4814L9.53594 82.3599L9.58116 82.2632L9.65703 82.1678L9.70225 82.0667L9.84691 81.8702L9.92214 81.7986L10.0214 81.7248L10.0923 81.6509L10.1933 81.6031L10.2878 81.5281L10.4076 81.479L10.602 81.3826L10.9672 81.3091L11.1138 81.2836L11.2355 81.2604H11.5233H11.7919L11.9385 81.2836L12.0583 81.3091L12.2061 81.3314L12.3259 81.3564L12.4226 81.3828L12.5448 81.4317L12.6423 81.4792L12.7625 81.5283L12.859 81.6033L12.9314 81.6511L13.0253 81.7251L13.2709 81.967L13.3206 82.0671L13.4627 82.2636L13.6592 82.7512L13.6837 82.8989L13.7317 83.0211L13.7572 83.1676L13.779 83.3382L13.806 83.4848V83.6565L13.8318 83.8269V84.5582H13.8313ZM14.2407 80.452L14.1451 80.4031L14.0754 80.3543L13.9741 80.3065L13.8995 80.2565L13.8056 80.2325L13.7117 80.1839L13.6138 80.1612L13.5158 80.11L13.4149 80.0859L13.198 80.0133L12.5443 79.8669L12.3024 79.8418L12.0313 79.8155H10.991L10.5092 79.8669L10.2638 79.9156L9.82505 80.0133L9.63323 80.0859L9.43757 80.135L9.24232 80.2328L9.14566 80.2568L9.05372 80.3067L8.90369 80.4034L8.80747 80.4522L8.73267 80.5034L8.66429 80.5761L8.56293 80.6237L8.49049 80.6728L8.22558 80.9409L8.17565 81.0159L8.10471 81.0868L8.05584 81.1612L7.98362 81.2345L7.88482 81.3824L7.83574 81.4788L7.78815 81.5515L7.73694 81.6505L7.69042 81.7244L7.64499 81.8221L7.61585 81.9186L7.5194 82.1143L7.49711 82.2131L7.42489 82.4087L7.37602 82.628L7.32609 82.8483L7.30102 83.0909L7.2753 83.3376L7.25514 83.5817L7.23093 83.8524V84.1194V84.3876L7.25514 84.6814L7.2753 84.9268L7.30102 85.1962L7.32609 85.4392L7.37602 85.6595L7.42489 85.9041L7.49711 86.1244L7.5194 86.2204L7.56805 86.3205L7.59377 86.4172L7.69042 86.6126L7.71465 86.7103L7.76588 86.807L7.81131 86.8807L7.85931 86.9787L7.90904 87.0537L7.98362 87.1263L8.02884 87.2228L8.0777 87.298L8.14993 87.3707L8.20137 87.4457L8.27231 87.516L8.34754 87.5659L8.39468 87.6392L8.46991 87.7125L8.61201 87.8096L8.71102 87.8835L8.85655 87.9802L8.95405 88.0312L9.025 88.0803L9.22153 88.1767L9.31497 88.2007L9.41227 88.2507L9.50807 88.2744L9.60559 88.3257L9.80084 88.3709L9.92171 88.4221L10.0209 88.4459L10.264 88.4958L10.4854 88.5186L10.7233 88.5447L10.991 88.5685L11.2351 88.5923H11.7914L12.0313 88.5685L12.3024 88.5447L12.5443 88.5186L12.7621 88.4958L13.198 88.3958L13.4149 88.3255L13.5158 88.2742L13.6138 88.2504L13.7117 88.2005L13.8056 88.1765L13.8995 88.1276L13.9741 88.0801L14.0754 88.031L14.1451 87.98L14.2407 87.932L14.3894 87.8342L14.4625 87.7605L14.5337 87.7123L14.6781 87.5655L14.7525 87.5155L14.8033 87.4452L14.8708 87.3702L14.9211 87.2976L14.9921 87.2224L15.093 87.0783L15.1618 86.9782L15.2118 86.9067L15.2606 86.8066L15.2848 86.7339L15.3836 86.5382L15.4524 86.3428L15.5283 86.1473L15.6027 85.9274L15.6981 85.4889L15.7235 85.2433L15.7471 84.999L15.796 84.4602V83.9223L15.7728 83.6552L15.7473 83.3858L15.7238 83.1415L15.6983 82.8978L15.6494 82.6786L15.6027 82.4567L15.5283 82.2364L15.3836 81.8455L15.3303 81.7478L15.2851 81.6753L15.2608 81.5776L15.212 81.5037L15.162 81.4059L15.0932 81.3309L15.042 81.2343L14.9925 81.161L14.9216 81.0866L14.8712 81.0157L14.6063 80.7452L14.5341 80.6972L14.4629 80.6235L14.3131 80.5257L14.2407 80.452ZM19.9583 72.3593H17.4222L18.6544 69.1186L19.9583 72.3593ZM21.3426 75.8439H23.3473L19.6955 67.4345H17.7832L14.1524 75.8439H16.0658L16.841 73.8477H20.5391L21.3426 75.8439ZM22.2969 82.6788L22.274 82.7504V82.8712L22.2485 82.9201L22.2262 82.994L22.175 83.0907L22.1521 83.1428L22.1276 83.1668L22.1034 83.2146L22.0522 83.2637L22.0325 83.2896L21.9813 83.3387L21.7378 83.4591L21.6668 83.4842L21.6156 83.5106L21.5217 83.5331H21.4487L21.1101 83.5819L20.9142 83.6059H18.4876V81.4792H20.6973H20.9144L21.1103 81.5043H21.3055L21.4731 81.5283L21.6941 81.6033H21.738L21.8126 81.6271L21.8617 81.6511L21.9092 81.6987L22.0044 81.7486L22.0788 81.8226L22.1036 81.8702L22.1278 81.8952L22.1523 81.9443L22.2022 82.0408L22.2264 82.0907L22.2487 82.1406L22.2742 82.2133V82.3337L22.2972 82.409V82.6788H22.2969ZM23.848 81.1383L23.5556 80.7452L23.388 80.5746L23.3184 80.5257L23.1928 80.4518L23.0974 80.3804L22.9766 80.3065L22.8786 80.2576L22.7333 80.2077L22.6116 80.1612L22.4697 80.1359L22.3194 80.0859L22.175 80.0611L21.6666 79.9895H21.3049L21.1338 79.9631H16.6674V88.4217H18.487V85.0944H20.5987L22.4913 88.4217H24.5332L22.3957 84.8762L22.7843 84.7785L22.8782 84.7294L22.9519 84.6805L23.0471 84.6567L23.1926 84.5577L23.2931 84.5089L23.5556 84.2412L23.6047 84.1685L23.6791 84.0946L23.7792 83.9469L23.8233 83.8515L23.8758 83.7765L23.8968 83.6775L23.9444 83.5809L23.9699 83.4831L24.019 83.3854L24.0419 83.2887L24.0677 83.1901V83.0901L24.0906 82.9707L24.1176 82.8706V82.1871L24.0677 81.8939L24.0419 81.7724L24.019 81.6258L23.9699 81.503L23.9444 81.3817L23.848 81.1383ZM29.1541 75.8439H31.2364V67.4345H29.3948L29.494 73.4817L25.9839 67.4345H23.7104V75.8439H25.5497L25.4742 69.4825L29.1541 75.8439ZM31.1526 82.8712L31.1284 82.945V83.02L31.1061 83.0905V83.1666L31.056 83.2632L31.0305 83.3372L31.0047 83.386L30.9608 83.4349L30.9329 83.484L30.7641 83.6569L30.6918 83.7032L30.6466 83.7283L30.5918 83.7774L30.4464 83.8262L30.3976 83.8513L30.1811 83.9229H30.0868L30.0103 83.948H29.9147L29.7463 83.972H27.3401V81.4792H29.4284H29.6472L29.8669 81.5043H29.9649L30.0564 81.5283H30.159L30.3035 81.5772L30.3976 81.6035H30.4707L30.5219 81.6513L30.6687 81.6989L30.7176 81.7253L30.7641 81.7741L30.8121 81.8003L30.8609 81.8468L30.8839 81.8959L30.9329 81.9197L30.9608 81.9675L31.0047 82.0425L31.0305 82.0913L31.056 82.1404L31.0817 82.2141L31.1061 82.2641V82.3344L31.1284 82.4096V82.4823L31.1526 82.5573V82.8712ZM33.1404 82.919L33.1674 82.7264L33.1404 82.5309V82.3592L33.1154 82.1672L33.0686 81.9934L33.0464 81.8217L32.9977 81.6753L32.922 81.5037L32.8511 81.356L32.8254 81.2844L32.6822 81.0647L32.6323 81.0159L32.5834 80.9409L32.5346 80.8931L32.4358 80.7465L32.3635 80.6974L32.3168 80.6488L32.2411 80.5999L32.1226 80.4758L31.8807 80.3543L31.7806 80.2827L31.6839 80.2578L31.442 80.1614L31.3198 80.1361L30.8832 80.0613L30.7171 80.036L30.5217 80.0135L30.3485 79.9897H29.697L29.4522 79.9634H25.5422V88.4219H27.3397V85.4628H30.0562L30.3031 85.439H30.5217L30.7171 85.4139L31.0555 85.3661L31.2002 85.3411L31.32 85.2922L31.4679 85.2695L31.954 85.0717L32.0468 84.999L32.1704 84.9264L32.2913 84.8286L32.388 84.7296L32.5123 84.6308L32.6074 84.5093L32.7054 84.4126L32.8509 84.1689L32.9218 84.0234L32.9707 83.8734L33.0206 83.753L33.0684 83.5813L33.0942 83.4347L33.1402 83.0905V82.919H33.1404ZM36.0785 82.2628L36.3704 81.8697L36.5145 81.7244L36.6124 81.6505L36.7076 81.6027L36.8051 81.5277L37.001 81.431L37.124 81.3822L37.6045 81.2831L37.7513 81.26H38.0183H38.3094L38.4318 81.2831L38.5745 81.3086L38.9399 81.3822L39.0353 81.431L39.1587 81.4786L39.2537 81.5277L39.3538 81.6027L39.4494 81.6505L39.5239 81.7244L39.6172 81.7981L39.695 81.8948L39.7633 81.9664L39.9099 82.1676L39.9579 82.263L40.0567 82.5052L40.1277 82.6278L40.1519 82.7506L40.201 82.8982L40.2288 83.0204L40.2499 83.167L40.2741 83.3376L40.2964 83.4842L40.3193 83.6559V83.8262L40.3471 83.9979V84.3876L40.3193 84.5586V84.7302L40.2964 84.9019L40.2741 85.0485L40.2499 85.2191L40.2288 85.3657L40.201 85.4896L40.1519 85.6351L40.1277 85.7577L40.0567 85.8805L39.9579 86.1248L39.9099 86.2208L39.695 86.5138L39.6172 86.5888L39.5239 86.6615L39.4494 86.7344L39.3538 86.7843L39.2537 86.8559L39.1587 86.9069L39.0353 86.956L38.9399 87.0048L38.819 87.0273L38.6969 87.0788H38.5747L38.432 87.1013L38.3096 87.1263H37.7256L37.6047 87.1013L37.4547 87.0788H37.3398L37.2174 87.0273L37.0953 87.0048L36.9744 86.956L36.785 86.8559L36.6836 86.7843L36.5884 86.7344L36.5147 86.6615L36.4174 86.5888L36.3413 86.4911L36.2704 86.4174L36.1276 86.2208L36.0788 86.098L36.0284 86.0031L35.9309 85.7577L35.882 85.6124L35.8574 85.4634L35.8132 85.3168L35.7841 85.1715L35.7599 85.0249L35.7356 84.8533V84.6818L35.7144 84.5101V83.7778L35.7356 83.6061L35.7599 83.4355V83.289L35.8132 82.9947L35.8574 82.8485L35.882 82.727L35.9309 82.6044L36.0284 82.3601L36.0785 82.2628ZM36.1274 80.0859L35.9307 80.135L35.8368 80.1841L35.7599 80.2328L35.6645 80.2568L35.468 80.3545L35.3237 80.4522L35.2294 80.5034L35.1572 80.5761L35.0108 80.6728L34.9399 80.7454L34.864 80.7953L34.7918 80.8691L34.7429 80.9407L34.5985 81.0866L34.4997 81.2343L34.4516 81.3086L34.3773 81.3822L34.3284 81.4786L34.2845 81.5512L34.2341 81.6503L34.1853 81.7242L34.1595 81.8219L34.0607 82.0174L34.0384 82.1141L34.0134 82.2129L33.9446 82.4085L33.8946 82.6278L33.8434 82.8481L33.7945 83.0907L33.7716 83.3374L33.748 83.5815V83.5828V83.5851V83.5862V83.5909V83.5961V83.5997V83.6042V83.61V83.6181V83.6233V83.6314V83.6396V83.6473V83.6578V83.6659V83.6747V83.6852V83.6962V83.7056V83.7172V83.7296V83.7418V83.7534V83.7628V83.7761V83.7879V83.7965V83.8001V83.814V83.8262V83.8368V83.8526V83.8642V83.8777V83.891V83.9015V83.9143V83.9255V83.9383V83.9495V83.9634V83.9733V83.9838V83.9949V84.0007V84.0065V84.0159V84.0258V84.0363V84.0461V84.0543V84.0626V84.0725V84.0783V84.0864V84.0905V84.0976V84.1034V84.1068V84.1113V84.1137V84.1177V84.1201V84.1212V84.1224V84.1235V84.1259V84.1306V84.1353V84.1392V84.1462V84.1518V84.1565V84.1657V84.1732V84.1814V84.1889V84.1983V84.2065V84.2077V84.2176V84.2281V84.2403V84.2497V84.2626V84.2746V84.2864V84.2975V84.3102V84.3237V84.3355V84.3511V84.3616V84.3751V84.3884V84.4013V84.4118V84.4131V84.4276V84.442V84.4523V84.4681V84.4797V84.4921V84.5037V84.5159V84.5311V84.541V84.5539V84.562V84.5755V84.5847V84.5959V84.6053V84.6152V84.6186V84.6231V84.6299V84.639V84.6458V84.6529V84.6587V84.6662V84.6685V84.673V84.6754V84.6799V84.6812V84.6825L33.7716 84.9279L33.7945 85.1973L33.8434 85.4403L33.8946 85.6606L33.9446 85.9051L33.9898 86.1255L34.0387 86.2215L34.0609 86.3216L34.1137 86.4182L34.1366 86.5147L34.2845 86.8079L34.3284 86.8816L34.3773 86.9795L34.4774 87.1272L34.5254 87.2236L34.5985 87.2989L34.6428 87.3715L34.7174 87.4465L34.7663 87.5168L34.843 87.5668L34.9872 87.7136L35.1304 87.8107L35.2022 87.8846L35.2783 87.9333L35.3758 87.9813L35.4452 88.0323L35.6398 88.1289L35.7142 88.1778L35.813 88.2018L35.9084 88.2517L36.0027 88.2755L36.1028 88.3267L36.1956 88.3493L36.3192 88.372L36.4172 88.4232L36.5389 88.447L36.7551 88.4969L37.4825 88.5698L37.7487 88.5936H37.7515H37.7528H37.7571H37.7607H37.7657H37.7691H37.7736H37.7781H37.7854H37.7897H37.7982H37.8113H37.8188H37.8274H37.8283H37.8355H37.8458H37.854H37.8647H37.8763H37.8865H37.8973H37.9088H37.9206H37.9298H37.9461H37.9577H37.9706H37.9815H37.9918H38.007H38.0194H38.0314H38.0325H38.0445H38.0561H38.0689H38.082H38.0949H38.1096H38.1191H38.1307H38.1424H38.1495H38.1632H38.1712H38.1834H38.19H38.2018H38.211H38.2205H38.2295H38.2331H38.238H38.2457H38.2515H38.2575H38.2631H38.2689H38.2736H38.277H38.2805H38.282H38.2854H38.2867L38.5531 88.5698L39.279 88.4969L39.7164 88.3968L39.9117 88.3265L40.0109 88.2753L40.1294 88.2515L40.2029 88.2016L40.2983 88.1776L40.4922 88.0811L40.5692 88.0321L40.6643 87.981L40.88 87.8355L40.9822 87.7618L41.051 87.7136L41.1262 87.6403L41.1716 87.567L41.2475 87.517L41.321 87.4467L41.3662 87.3717L41.4421 87.2991L41.4897 87.2239L41.5606 87.1536L41.6106 87.0798L41.6618 86.9797L41.707 86.9082L41.7537 86.8081L41.8037 86.7354L41.857 86.6377L41.8793 86.5398L41.9723 86.3443L42.0236 86.1488L42.0958 85.9289L42.1924 85.4904L42.2437 85.2448L42.2655 85.0005L42.2904 84.7311V83.6567L42.2655 83.3873L42.2437 83.143L42.1924 82.8993L42.1436 82.6801L42.0956 82.4582L42.0233 82.2379L41.9721 82.0414L41.8791 81.847L41.8568 81.7493L41.8022 81.6753L41.7522 81.5776L41.7055 81.5037L41.6603 81.4059L41.6091 81.3309L41.5591 81.2343L41.4882 81.161L41.4406 81.0866L41.3647 81.0157L41.3195 80.9407L41.246 80.8939L41.1701 80.8178L41.1247 80.7452L41.0495 80.6972L40.9807 80.6235L40.8784 80.5759L40.8075 80.5259L40.7351 80.452L40.6628 80.4031L40.5677 80.3543L40.4907 80.3065L40.3969 80.2565L40.2968 80.2325L40.2014 80.1839L40.1279 80.1612L40.0094 80.11L39.9101 80.0859L39.7149 80.0133L39.2775 79.9156L39.0355 79.8669L38.5516 79.8155H38.5479H38.5421H38.5409H38.5331H38.5246H38.519H38.5051H38.4956H38.4841H38.471H38.4562H38.4399H38.432H38.4273H38.405H38.3874H38.3711H38.3443H38.3293H38.3096H38.2886H38.2676H38.2442H38.2314H38.2237H38.1979H38.177H38.1499H38.1289H38.106H38.0805H38.0548H38.0304H38.0061H37.9806H37.9583H37.9316H37.9084H37.8861H37.8632H37.8375H37.828H37.8186H37.7895H37.7697H37.7487H37.729H37.7093H37.6907H37.6722H37.6525H37.6345H37.6268H37.6182H37.6047H37.5884H37.5777H37.5661H37.5559H37.5438H37.537H37.5254H37.5209H37.5162H37.5128H37.5091L37.2429 79.8418L37.001 79.8669L36.3409 80.0133L36.1274 80.0859ZM43.865 75.8439H45.6297V67.4345H42.9888L40.8144 73.8953L38.6375 67.4345H35.9759V75.8439H37.8141L37.6465 69.2382L39.8954 75.8439H41.8054L44.0067 69.2881L43.865 75.8439ZM46.933 75.8439H48.8209V67.4345H46.933V75.8439ZM48.694 82.5309L48.67 82.6048V82.7502L48.6432 82.799V82.8712L48.6188 82.9201V82.994L48.5736 83.0907L48.5479 83.1428L48.4722 83.2144L48.4486 83.2634L48.4034 83.2894L48.3803 83.3385L48.1837 83.4349L48.1091 83.4587L48.0626 83.4838L47.9158 83.5326H47.8449L47.5041 83.5815L47.2885 83.6055H44.8607V81.4788H47.0691H47.3123L47.5043 81.5039H47.6998L47.8451 81.5279L48.0629 81.6029H48.1351L48.1839 81.6267L48.2562 81.6507L48.3305 81.7246L48.4272 81.7735L48.4726 81.8702L48.5234 81.8952L48.5481 81.9443L48.5944 82.0408L48.619 82.0907L48.6435 82.1406V82.2133L48.6702 82.2632V82.4574L48.694 82.5309ZM49.9551 80.7452L49.7832 80.5746L49.6866 80.5257L49.4932 80.3804L49.3689 80.3065L49.1304 80.2077L48.9838 80.1612L48.8616 80.1359L48.694 80.0859L48.4034 80.036L48.0626 79.9897H47.6998L47.5043 79.9634H43.0622V88.4219H44.8607V85.0946H46.9966L48.8863 88.4219H50.9277L48.7648 84.8764L48.8861 84.8524L49.1788 84.7787L49.2538 84.7296L49.3466 84.6807L49.4225 84.657L49.5164 84.6079L49.6608 84.5091L49.8121 84.3614L49.8818 84.3153L49.9551 84.2416L50.0995 84.0232L50.1754 83.9471L50.2181 83.8518L50.2436 83.7767L50.2935 83.6777L50.3205 83.5811L50.3704 83.4833L50.4172 83.289L50.439 83.1904L50.4637 83.0903L50.4902 82.9709V82.7499L50.5145 82.6271V82.359L50.4902 82.1874V82.0397L50.4637 81.8944L50.439 81.7729L50.4172 81.6263L50.2704 81.26L50.2178 81.1383L50.1752 81.0405L49.9551 80.7452ZM53.3454 75.8439H57.7246V70.849H53.4678V72.3593H55.8849V74.3332H53.7342L53.6139 74.3098H53.4886L53.2515 74.2607L53.1536 74.2352L53.0314 74.2108L52.9326 74.1877L52.8385 74.1377L52.7663 74.0895L52.6684 74.0417L52.594 73.9918L52.5265 73.918L52.4521 73.8703L52.3788 73.7749L52.3066 73.6997L52.2622 73.627L52.1877 73.5543L52.0891 73.3589L52.0646 73.2588L52.0147 73.1381L51.9695 73.0155L51.9438 72.8951L51.8925 72.6525L51.8715 72.507V72.3591L51.8471 72.2138V72.041L51.8229 71.8707V71.5303L51.8471 71.3599V71.1906L51.8715 71.0179V70.8713L51.9438 70.4336L51.9913 70.3098L52.0147 70.1897L52.0646 70.0682L52.1135 69.9443L52.1358 69.8488L52.2117 69.75L52.3068 69.5569L52.5942 69.2626L52.6686 69.2148L52.7665 69.1411L52.8388 69.0933L52.9328 69.0421L53.0584 69.0181L53.1538 68.9692L53.2517 68.9467L53.4888 68.8968H57.7248V67.4338H53.6142L52.8861 67.5095L52.6684 67.5305L52.4521 67.5817L52.2622 67.6543L52.0646 67.7021L51.8715 67.7748L51.7031 67.85L51.6296 67.8989L51.5342 67.9465L51.4598 67.9943L51.3632 68.0468L51.1454 68.1908L51.0745 68.2658L50.9279 68.3601L50.8779 68.434L50.8083 68.5078L50.7616 68.5817L50.6838 68.6293L50.5886 68.7754L50.5406 68.8721L50.4718 68.9471L50.4189 69.0185L50.3932 69.1175L50.202 69.4596L50.1298 69.6539L50.0809 69.8494L50.0065 70.0687L49.9124 70.508L49.8856 70.7489L49.8625 70.9954L49.8391 71.2624V72.3595L49.8625 72.4802V72.6051L49.8856 72.7476L49.9124 72.8709L49.9587 73.1148L49.9857 73.2112L50.0067 73.3327L50.031 73.4555L50.0809 73.5546L50.1298 73.6772L50.1521 73.7749L50.4427 74.36L50.4939 74.4309L50.5663 74.5299L50.6373 74.6013L50.6838 74.6729L50.7616 74.7455L50.8338 74.8456L50.9772 74.9922L51.0481 75.04L51.1454 75.1127L51.3876 75.306L51.5342 75.3808L51.6519 75.4547L51.7959 75.528L51.9438 75.5756L52.0646 75.6247L52.3533 75.7224L52.5265 75.7475L52.7196 75.7966L52.9129 75.8203H53.1302L53.3454 75.8439ZM65.9997 73.3325L66.0248 73.1381V67.4342H64.2324V72.7474L64.2067 72.8951V73.0155L64.1848 73.1381V73.2588L64.16 73.3827L64.1358 73.4817L64.1148 73.5771L64.0639 73.6772L64.0395 73.7749L63.8464 74.0657L63.7976 74.1377L63.7519 74.1877L63.6773 74.2355L63.6297 74.2843L63.5554 74.3334L63.4831 74.3602L63.3878 74.4063L63.3121 74.4538L63.0243 74.5301L62.9013 74.5529H62.8059L62.6874 74.5767H61.9358L61.8136 74.5529H61.7157L61.5948 74.5301L61.4017 74.4802L61.3307 74.4538L61.2341 74.4063L61.1597 74.3602L61.0913 74.3334L60.8717 74.1879L60.8213 74.1146L60.7724 74.0659L60.6297 73.8477L60.6014 73.7749L60.5562 73.6772L60.5339 73.5771L60.5062 73.4817L60.4587 73.3827V73.2588L60.412 73.0155V72.8951L60.3852 72.7474V67.4342H58.5958V72.9678L58.6215 73.1621V73.3587L58.6457 73.5291L58.67 73.6994L58.6935 73.8212L58.7154 73.9665L58.7396 74.0893L58.7653 74.2106L58.8165 74.333L58.9571 74.6262L59.033 74.7215L59.0808 74.7976L59.2716 74.9918L59.3691 75.0644L59.4181 75.1371L59.5182 75.187L59.5905 75.2346L59.6614 75.3051L59.7568 75.3574L59.8299 75.4052L59.924 75.4541L59.9998 75.5029L60.1948 75.603L60.2892 75.624L60.3845 75.6727L60.5798 75.7218L60.6741 75.7717L60.7973 75.7957L60.8965 75.8195L61.1357 75.8686H61.2555L61.5003 75.9161H61.7652L62.0341 75.9423H62.5877L62.8541 75.9161H63.1182L63.3648 75.8686H63.4825L63.8454 75.7959L63.9429 75.7719L64.0385 75.722L64.2313 75.6729L64.3299 75.6242L64.4234 75.6032L64.7191 75.4543L64.8597 75.3576L64.9611 75.3053L65.0282 75.2348L65.103 75.1872L65.1979 75.1373L65.2491 75.0647L65.3201 74.992L65.3923 74.9444L65.5366 74.7978L65.5869 74.6988L65.6587 74.6262L65.7086 74.5297L65.7554 74.4307L65.8074 74.3098L65.854 74.2108L65.8784 74.0895L65.9007 73.944L65.9495 73.8214L65.9742 73.6521L65.9986 73.5055V73.3325H65.9997ZM63.9298 81.4548H66.6926V79.9895H59.2728V81.4548H62.0627V88.4217H63.93L63.9298 81.4548ZM70.4993 75.8439H74.0294V74.3844H70.8157L70.6939 74.36H70.5737L70.452 74.3332L70.3577 74.3098L70.2359 74.2841L69.9425 74.2108L69.8703 74.1632L69.7764 74.1141L69.7276 74.0655L69.5062 73.9178L69.2668 73.5543L69.2188 73.4553L69.1922 73.3589L69.1667 73.2588L69.12 73.1621V73.0668L69.0957 72.944L69.0726 72.8439L69.0471 72.7251V72.3366H74.0298V70.849H69.0471L69.0726 70.726V70.6282L69.0957 70.5089V70.3826L69.12 70.2875L69.1435 70.1902L69.1665 70.0924L69.2185 69.9947L69.2434 69.897L69.2895 69.8243L69.3399 69.7277L69.5306 69.4343L69.6024 69.3856L69.7273 69.2628L69.8701 69.1649L69.968 69.1171L70.0402 69.0933L70.1378 69.0421L70.2078 69.0193L70.4993 68.9467H70.6196L70.7209 68.9227L70.8394 68.8965H71.0814H74.0296V67.4336H70.7908L70.0649 67.5092L69.8461 67.5303L69.654 67.5825L69.4365 67.6316L69.2438 67.7019L69.0726 67.7746L68.8803 67.8498L68.7831 67.8987L68.6352 67.994L68.5398 68.0453L68.2503 68.2396L67.8673 68.6293L67.716 68.8498L67.6442 68.9469L67.5962 69.0196L67.5719 69.0935L67.4766 69.289L67.4043 69.4593L67.2569 69.849L67.2089 70.0682L67.1345 70.287L67.1122 70.5084L67.0659 70.7483L67.0404 70.9937L67.0181 71.2618V72.0668L67.0404 72.3587V72.4793L67.0659 72.6043V72.7468L67.0856 72.87L67.1345 73.1139L67.1624 73.2093L67.1866 73.3319L67.2333 73.4547L67.2567 73.5537L67.3079 73.6763L67.3298 73.774L67.6199 74.3591L67.693 74.4301L67.743 74.5291L67.8906 74.672L67.9361 74.7447L68.007 74.8437L68.1538 74.9914L68.2503 75.0391L68.3223 75.1131L68.4457 75.2095L68.5889 75.3051L68.7087 75.3799L68.8561 75.4539L68.9764 75.5272L69.1204 75.5747L69.2672 75.6474L69.4104 75.6973L69.5572 75.7211L69.7282 75.7462L69.8967 75.7953L70.0887 75.8191H70.2818L70.4993 75.8439ZM75.332 81.3822L75.4287 81.431L75.5496 81.4786L75.6475 81.5277L75.7463 81.6027L75.8149 81.6505L76.0116 81.7981L76.086 81.8948L76.1544 81.9664L76.2313 82.0665L76.2793 82.1676L76.3537 82.263L76.493 82.6278L76.5455 82.7506L76.5954 82.8982L76.6164 83.0204L76.6443 83.167L76.6653 83.3376L76.6884 83.4842V83.6559L76.714 83.8262V84.5586L76.6884 84.7302V84.9019L76.6653 85.0485L76.6443 85.2191L76.6164 85.3657L76.5954 85.4896L76.5455 85.6351L76.3535 86.1248L76.2791 86.2208L76.2311 86.3209L76.0856 86.5138L76.0112 86.5888L75.8144 86.7344L75.7459 86.7843L75.6471 86.8559L75.5491 86.9069L75.4282 86.956L75.3316 87.0048L75.2099 87.0273L75.0877 87.0788H74.9435L74.7051 87.1263H74.1185L73.9758 87.1013L73.8509 87.0788H73.73L73.6091 87.0273L73.4861 87.0048L73.3663 86.956L73.2696 86.9069L73.1475 86.8559L73.0731 86.7843L72.9777 86.7344L72.8845 86.6615L72.8123 86.5888L72.7345 86.4911L72.6635 86.4174L72.5167 86.2208L72.4693 86.098L72.4203 86.0031L72.3249 85.7577L72.2737 85.6124L72.2237 85.4634L72.1783 85.1715L72.1541 85.0249L72.1311 84.8533L72.1029 84.6818V83.6061L72.1311 83.4355L72.1541 83.289L72.1993 82.9947L72.2508 82.8485L72.2737 82.727L72.3249 82.6044L72.4203 82.3601L72.4693 82.2634L72.5412 82.1681L72.5911 82.0669L72.7343 81.8704L72.812 81.7988L73.0051 81.6511L73.0984 81.6033L73.195 81.5283L73.3905 81.4317L73.5101 81.3828L73.6089 81.3564L73.8509 81.3091L73.9977 81.2836L74.1185 81.2604H74.4091H74.7051L74.9435 81.3091L75.0877 81.3314L75.332 81.3822ZM75.4287 79.8669L74.9437 79.8155H74.9398H74.9345H74.9317H74.9274H74.9179H74.9072H74.9004H74.8888H74.8749H74.8618H74.8444H74.8294H74.8134H74.7945H74.7761H74.7598H74.7364H74.718H74.6946H74.6749H74.6505H74.6295H74.6106H74.6053H74.5817H74.562H74.5343H74.5107H74.4852H74.4621H74.4344H74.4096H74.383H74.3607H74.3365H74.3131H74.284H74.2608H74.2411H74.2131H74.2086H74.1897H74.1687H74.1477H74.1235H74.105H74.0828H74.0617H74.0431H74.0255H74.0092H73.9945H73.976H73.9593H73.9432H73.9342H73.9201H73.9121H73.904H73.8959H73.8899H73.8832H73.8772H73.8751L73.3911 79.8669L73.1477 79.9156L72.7118 80.0133L72.5171 80.0859L72.3251 80.135L72.1311 80.2328L72.0319 80.2568L71.961 80.3067L71.8643 80.3545L71.7912 80.4034L71.6946 80.4522L71.6224 80.5034L71.5446 80.5761L71.4018 80.6728L71.3283 80.7454L71.2546 80.7953L71.1071 80.9407L71.063 81.0157L70.9908 81.0866L70.9417 81.161L70.8686 81.2343L70.821 81.3086L70.7685 81.3822L70.7254 81.4786L70.6753 81.5512L70.6256 81.6503L70.578 81.7242L70.5268 81.8219L70.5032 81.9184L70.4543 82.0174L70.4301 82.1141L70.3849 82.2129L70.336 82.4085L70.2601 82.6278L70.2372 82.8481L70.1892 83.0907L70.1635 83.3374L70.1405 83.5815V83.8522L70.1135 84.1192L70.1405 84.3873V84.6812L70.1635 84.9266L70.1892 85.196L70.2372 85.439L70.2601 85.6593L70.3081 85.9039L70.3847 86.1242L70.407 86.2202L70.4543 86.3203L70.4826 86.4169L70.6256 86.7099L70.6466 86.8066L70.6999 86.8803L70.7479 86.9782L70.8214 87.0533L70.869 87.1259L70.9179 87.2224L70.9678 87.2976L71.0364 87.3702L71.0866 87.4452L71.1609 87.5155L71.2344 87.5655L71.3772 87.7123L71.5219 87.8094L71.5949 87.8833L71.6682 87.932L71.7659 87.98L71.8382 88.031L71.9348 88.0801L72.0113 88.1276L72.1033 88.1765L72.1997 88.2005L72.2998 88.2504L72.3939 88.2742L72.4931 88.3255L72.5919 88.348L72.7122 88.3707L72.8131 88.4219L72.9096 88.4457L73.1481 88.4956L73.3669 88.5183L73.6097 88.5445L74.1451 88.5921H74.1486H74.1498H74.158H74.1592H74.1614H74.1661H74.173H74.1775H74.1843H74.1938H74.2009H74.209H74.2158H74.2253H74.2368H74.2463H74.2579H74.266H74.2767H74.293H74.3046H74.3136H74.3264H74.3372H74.3487H74.3616H74.3738H74.3839H74.3976H74.4104H74.4233H74.4355H74.4524H74.4632H74.4726H74.4863H74.4979H74.5086H74.5202H74.533H74.5461H74.5568H74.5658H74.5753H74.5873H74.5963H74.6033H74.6123H74.6218H74.6273H74.6359H74.6425H74.6494H74.6554H74.6599H74.6655H74.6681H74.6749H74.6762H74.6796L74.9449 88.5683L75.43 88.5183L75.6488 88.4956L75.8908 88.4457L76.0873 88.3958L76.3069 88.3255L76.3968 88.2742L76.4943 88.2504L76.5969 88.2005L76.69 88.1765L76.789 88.1276L76.8635 88.0801L76.9563 88.031L77.0333 87.98L77.1272 87.932L77.2718 87.8342L77.3462 87.7605L77.4231 87.7123L77.5671 87.5655L77.6359 87.5155L77.7112 87.4452L77.7605 87.3702L77.8312 87.2976L77.9291 87.1521L78.0037 87.0783L78.0498 86.9782L78.1002 86.9067L78.1465 86.8066L78.1932 86.7339L78.2208 86.6362L78.2676 86.5382L78.4167 86.1475L78.4851 85.9277L78.5852 85.4892L78.6062 85.2435L78.6561 84.9992V84.7298L78.6803 84.4604V83.9225L78.6561 83.6554V83.386L78.6062 83.1417L78.5852 82.898L78.5376 82.6788L78.4851 82.457L78.4167 82.2366L78.2676 81.8457L78.2208 81.748L78.1932 81.6753L78.1465 81.5776L78.1002 81.5037L78.0498 81.4059L78.0037 81.3309L77.9291 81.2343L77.8312 81.0866L77.7605 81.0157L77.7112 80.9407L77.6359 80.8939L77.4904 80.7452L77.4231 80.6972L77.3462 80.6235L77.2035 80.5257L77.1274 80.4518L77.0335 80.4029L76.9566 80.3541L76.8638 80.3063L76.7892 80.2563L76.6902 80.2323L76.5971 80.1837L76.4945 80.161L76.397 80.1097L76.3072 80.0857L76.0875 80.0131L75.891 79.9631L75.649 79.9153L75.4287 79.8669ZM78.7736 75.8439H81.0479V74.4536H78.6289L78.4836 74.4309H78.3381L78.0948 74.3844L77.8053 74.31L77.7086 74.261L77.5654 74.1632L77.4688 74.1141L77.3957 74.0404L77.3468 73.9665L77.2759 73.9176L77.2268 73.8698L77.1992 73.7972L77.1525 73.747L77.1306 73.6992L77.0794 73.5539L77.0558 73.5048L77.0316 73.4322V73.3321L77.005 73.2357V73.1377L76.9827 73.0151V67.4338H75.1691V72.6737L75.1929 72.9191V73.1141L75.2178 73.3321L75.2441 73.5048L75.2639 73.6765L75.3129 73.8471L75.3387 73.9911L75.3886 74.1137L75.4582 74.2603L75.5071 74.3838L75.6528 74.6257L75.8455 74.8701L76.1841 75.2097L76.305 75.2848L76.4497 75.3801L76.5703 75.4764L76.7161 75.5518L76.8406 75.603L77.0556 75.6727L77.1522 75.6978L77.2266 75.7215L77.3211 75.7466L77.5164 75.7717L77.9512 75.8206L78.2153 75.8433H78.7736V75.8439ZM87 88.4219V88.4148V88.3955V88.3921V88.3681V88.3512V88.325V88.2978V88.274V88.2374V88.2123V88.1647V88.1407V88.0809V88.0558V87.9896V87.9656V87.8906V87.8668V87.7807V87.7579V87.6643V87.6414V87.5374V87.5151V87.4052V87.3846V87.2659V87.2455V87.1195V87.1002V86.9652V86.9467V86.8094V86.7903V86.646V86.6276V86.4787V86.4596V86.3059V86.2869V86.1274V86.1096V85.9474V85.9311V85.7618V85.7446V85.5732V85.5569V85.3829V85.3685V85.1897V85.1752V84.9966V84.9827V84.7999V84.786V84.6023V84.5894V84.4034V84.3906V84.2043V84.1925V84.0065V83.9936V83.8074V83.7969V83.6083V83.6001V83.4115V83.4034V83.2184V83.2079V83.0249V83.0161V82.834V82.8282V82.6466V82.6385V82.461V82.4563V82.2802V82.2754V82.1057V82.0993V81.931V81.9263V81.7624V81.7589V81.5988V81.5943V81.4407V81.4359V81.2896V81.2855V81.1428V81.1417V81.0041V81.0007V80.8731V80.8697V80.7467V80.7433V80.6301V80.6277V80.5193V80.4192V80.3273V80.3262V80.2465V80.1751V80.1715V80.1117V80.1093V80.057V80.018V79.9889V79.9689V79.9625H86.994H86.9871H86.9801H86.9698H86.9591H86.9546H86.9417H86.9216H86.9194H86.904H86.8821H86.874H86.8564H86.8309H86.8159H86.8065H86.7784H86.7518H86.7458H86.7158H86.6796H86.676H86.6468H86.6144H86.5956H86.5746H86.536H86.506H86.4968H86.4573H86.4175H86.4093H86.3778H86.3337H86.3058H86.2929H86.2512H86.2081H86.1931H86.1676H86.1208H86.0791H86.0756H86.0371H85.9929H85.9511H85.9485H85.9081H85.8639H85.8229H85.8221H85.7812H85.7417H85.6999H85.6884H85.6592H85.6228H85.5857H85.5484H85.5437H85.5124H85.48H85.4436H85.4132H85.3997H85.3842H85.3566H85.3287H85.303H85.2775H85.2578H85.2509H85.237H85.2182H85.2044H85.1892H85.1811H85.1695H85.1661H85.1601L85.2511 86.0243L81.7376 79.9625H81.735H81.7292H81.7247H81.7127H81.6992H81.6795H81.6607H81.6418H81.6105H81.5861H81.558H81.5254H81.5196H81.4956H81.4581H81.4196H81.3801H81.3572H81.3396H81.2978H81.2524H81.208H81.2059H81.1647H81.1139H81.0627H81.0546H81.0175H80.9662H80.914H80.9118H80.8628H80.8128H80.771H80.7575H80.7014H80.6523H80.6339H80.6015H80.5445H80.5061H80.4886H80.4373H80.3838H80.3803H80.3304H80.2779H80.265H80.229H80.1769H80.1512H80.1265H80.0811H80.0488H80.0325H79.9825H79.9547H79.9386H79.8968H79.8653H79.8584H79.8139H79.7806H79.7721H79.7397H79.7131H79.7003H79.6688H79.6431H79.6355H79.6085H79.5852H79.5807H79.5552H79.541H79.5329H79.514H79.5065H79.4943H79.4827H79.4782H79.4701H79.4656H79.462H79.4585H79.4572V79.9689V79.9889V80.018V80.057V80.1093V80.1117V80.1715V80.1751V80.2465V80.3262V80.3273V80.4192V80.5193V80.6277V80.6301V80.7433V80.7467V80.8697V80.8731V81.0007V81.0041V81.1417V81.1428V81.2855V81.2896V81.4359V81.4407V81.5943V81.5988V81.7589V81.7624V81.9263V81.931V82.0993V82.1057V82.2754V82.2808V82.457V82.4617V82.6391V82.6473V82.8288V82.8346V83.0168V83.0256V83.2086V83.2191V83.404V83.4122V83.6008V83.6089V83.7975V83.808V83.9943V84.0071V84.1932V84.205V84.3912V84.4041V84.5901V84.6029V84.7866V84.8005V84.9834V84.9973V85.1758V85.1904V85.3691V85.3835V85.5575V85.5738V85.7453V85.7624V85.9317V85.948V86.1103V86.128V86.2875V86.3066V86.4602V86.4793V86.6283V86.6467V86.7909V86.81V86.9474V86.9658V87.1008V87.1201V87.2461V87.2665V87.3852V87.4058V87.5158V87.538V87.642V87.6649V87.7586V87.7813V87.8675V87.8906V87.9656V87.9896V88.0558V88.0809V88.1407V88.1647V88.2123V88.2374V88.274V88.2978V88.3252V88.3514V88.3683V88.3923V88.3958V88.415V88.4221H81.3013L81.2258 82.0414L84.9172 88.4221H87V88.4219Z" fill="#30302C"/>
</svg>
