<svg width="100" height="63" viewBox="0 0 100 63" fill="none" xmlns="http://www.w3.org/2000/svg">
<path d="M54.6983 9.98943L54.6985 9.9896C65.3573 17.2398 74.0385 26.5812 80.0294 38.1856L80.0297 38.1861C81.8422 41.6989 82.9716 45.5117 83.5804 49.5997L84.6519 56.7944L79.3838 51.7785C79.1551 51.5608 78.9062 51.3289 78.6466 51.087C78.0721 50.5517 77.4448 49.9672 76.8659 49.3774C78.0908 50.9434 79.2755 52.5198 80.4432 54.0735C81.7179 55.7697 82.9723 57.4389 84.2365 59.0379L84.2365 59.038C84.9399 59.9278 85.3272 60.0949 85.4035 60.1217C85.494 60.1006 85.7701 59.9925 86.2816 59.506C90.4864 55.5037 93.8003 50.8452 96.2886 45.6212C95.8689 45.991 95.4445 46.4697 94.9784 47.0792C94.6241 47.5425 94.2739 48.0427 93.8849 48.602L93.8133 48.7049C93.4533 49.2227 93.0604 49.7878 92.6424 50.3481C91.7467 51.5486 90.6571 52.8368 89.2199 53.9315L85.8235 56.5186L85.2294 52.2905C85.1564 51.7708 85.101 51.2502 85.0555 50.8224C85.0362 50.6409 85.0186 50.4761 85.0023 50.3351C84.9405 49.803 84.8822 49.4615 84.799 49.1796C79.3527 30.7671 67.6415 17.2333 51.4236 7.14385L51.4234 7.14372C49.1903 5.75418 46.4784 4.76989 43.7235 4.11739L43.7229 4.11723C33.2933 1.64403 22.9657 2.05012 12.9953 5.79848C12.7525 5.88976 12.5118 5.9872 12.2727 6.09036C21.7248 2.72994 31.6133 2.76287 41.4172 4.43497C46.1228 5.2369 50.843 7.36765 54.6983 9.98943ZM85.3697 60.1256C85.3696 60.1266 85.3772 60.1269 85.393 60.1239C85.3778 60.1232 85.3699 60.1247 85.3697 60.1256Z" stroke="#55B047" stroke-width="5"/>
</svg>
