<svg width="82" height="82" viewBox="0 0 82 82" fill="none" xmlns="http://www.w3.org/2000/svg">
<circle cx="41" cy="41" r="41" fill="#00A3D5"/>
<path d="M40.1729 16.2612C40.1729 16.2612 31.673 11.7612 25.6729 19.7612C24.202 21.7224 23.4488 23.9864 23.173 26.7612M23.6729 37.7612C23.6729 37.7612 22.6533 31.9922 23.173 26.7612M23.173 26.7612C23.173 26.7612 33.7883 24.4954 44.673 26.2612C52.8609 27.5896 61.4532 32.6829 64.673 36.7612C72.173 46.2612 64.173 52.7612 64.173 52.7612" stroke="white" stroke-width="1.8" stroke-linecap="round" stroke-linejoin="round"/>
<path d="M35.1738 25.2613C35.1738 25.2613 39.356 21.2397 45.6738 19.2613C51.9916 17.2829 60.1738 17.2613 63.1738 24.7613C65.6738 31.2613 60.6954 42.4184 56.1738 48.2613C49.7216 56.599 42.6738 60.7613 42.6738 60.7613" stroke="white" stroke-width="1.8" stroke-linecap="round" stroke-linejoin="round"/>
<path d="M45.1738 19.7612C45.1738 19.7612 47.6738 21.7612 49.1738 23.7612C50.6738 25.7612 52.1738 28.2612 52.1738 28.2612" stroke="white" stroke-width="1.8" stroke-linecap="round" stroke-linejoin="round"/>
<path d="M41.6738 50.2612L49.4064 42.0215C50.2179 41.169 50.6738 40.0128 50.6738 38.8071C50.6738 37.6015 50.2179 36.4452 49.4064 35.5927C48.5949 34.7402 47.4943 34.2612 46.3466 34.2612C45.199 34.2612 44.0983 34.7402 43.2868 35.5927L41.6738 37.1708L40.0609 35.5927C39.2493 34.7402 38.1487 34.2612 37.001 34.2612C35.8534 34.2612 34.7528 34.7402 33.9412 35.5927C33.1297 36.4452 32.6738 37.6015 32.6738 38.8071C32.6738 40.0128 33.1297 41.169 33.9412 42.0215C34.7528 42.8741 37.8075 46.1414 37.8075 46.1414L41.6738 50.2612Z" stroke="white" stroke-width="1.8" stroke-linecap="round" stroke-linejoin="round"/>
<path d="M56.1736 34.7612C56.1736 34.7612 60.5626 46.4095 59.4765 55.7612M25.6736 44.7612C25.6736 44.7612 30.0579 56.219 37.5202 62.7612M59.4765 55.7612C58.8827 60.874 56.6523 65.3002 51.1736 66.7612C45.9368 68.1577 41.3279 66.0993 37.5202 62.7612M59.4765 55.7612C59.4765 55.7612 46.8446 57.7729 36.6735 55.7612C26.5617 53.7612 18.917 47.7495 16.6736 43.7612C12.1736 35.7612 18.1736 29.7612 18.1736 29.7612M37.5202 62.7612C37.5202 62.7612 26.1735 69.7612 20.1735 58.7612C14.1735 47.7612 29.6735 30.2612 29.6735 30.2612" stroke="white" stroke-width="1.8" stroke-linecap="round" stroke-linejoin="round"/>
</svg>
